<mxfile host="app.diagrams.net" modified="2023-09-28T18:54:31.716Z" agent="Mozilla/5.0 (X11; Linux x86_64; rv:102.0) Gecko/20100101 Firefox/102.0" version="21.8.2" etag="3b79FcSYlaE21xqRMUbA" type="github">
  <diagram name="PÃ¡gina-1" id="bXB3psd5k-11X4iEzKeL">
    <mxGraphModel>
      <root>
        <mxCell id="0" />
        <mxCell id="1" parent="0" />
      </root>
    </mxGraphModel>
  </diagram>
</mxfile>
